<svg width="81" height="72" viewBox="0 0 81 72" fill="none" xmlns="http://www.w3.org/2000/svg">
<path d="M28.48 16.5141C25.7379 16.7932 22.9701 17.674 21.1168 21.6135C18.021 22.3458 15.9192 27.9372 15.9192 28.6302C15.3977 28.7601 12.4498 33.9298 14.6879 38.8405C18.7205 44.8675 25.9245 43.538 27.8736 44.3096C29.8227 45.0812 29.4472 45.9376 34.7171 47.125C39.9871 48.3123 43.6166 58.6579 44.093 58.6579C44.5694 58.6579 50.8451 58.4796 50.8932 58.6579C50.9413 58.8361 48.9093 50.269 52.7123 50.515C56.5154 50.7609 67.819 50.3108 66.5957 39.4585C68.8221 34.311 65.4991 30.1026 65.4898 29.7679C65.4804 29.4332 64.1653 22.3619 59.7291 21.4951C57.1354 17.5003 55.3522 16.6046 51.8028 16.5141C48.0852 12.7104 44.0513 12.765 40.2814 14.8248C34.9422 12.7342 32.1007 13.3302 28.48 16.5141Z" stroke="#EEECE3" stroke-width="0.779638" stroke-linejoin="round"/>
<path d="M45.2617 21.4834V25.5973" stroke="#EEECE3" stroke-width="0.173253"/>
<line x1="49.9239" y1="24.0778" x2="45.246" y2="25.6371" stroke="#EEECE3" stroke-width="0.173253"/>
<path d="M45.2197 25.5115L44.3104 28.2397" stroke="#EEECE3" stroke-width="0.173253"/>
<path d="M52.9705 25.7425L51.8471 28.9759" stroke="#EEECE3" stroke-width="0.173253"/>
<line x1="51.8495" y1="29.1837" x2="45.1793" y2="25.8053" stroke="#EEECE3" stroke-width="0.173253"/>
<line x1="53.8935" y1="32.7876" x2="51.8149" y2="29.15" stroke="#EEECE3" stroke-width="0.173253"/>
<line x1="55.6133" y1="29.1066" x2="51.8891" y2="29.1066" stroke="#EEECE3" stroke-width="0.173253"/>
<line x1="48.3007" y1="30.6742" x2="51.7651" y2="29.0286" stroke="#EEECE3" stroke-width="0.173253"/>
<line x1="50.9887" y1="35.0764" x2="48.2172" y2="33.8639" stroke="#EEECE3" stroke-width="0.173253"/>
<line x1="51.0491" y1="36.8127" x2="44.8986" y2="38.7185" stroke="#EEECE3" stroke-width="0.173253"/>
<path d="M44.7422 34.2148L45.0021 38.6345" stroke="#EEECE3" stroke-width="0.173253"/>
<line x1="53.0866" y1="37.4725" x2="51.2678" y2="40.0708" stroke="#EEECE3" stroke-width="0.173253"/>
<line x1="47.4996" y1="40.9511" x2="44.9879" y2="38.6127" stroke="#EEECE3" stroke-width="0.173253"/>
<line x1="57.4546" y1="41.8379" x2="53.9902" y2="42.704" stroke="#EEECE3" stroke-width="0.173253"/>
<path d="M59.6426 43.2702L56.6979 46.6046" stroke="#EEECE3" stroke-width="0.173253"/>
<line x1="53.8459" y1="44.5427" x2="56.704" y2="46.6213" stroke="#EEECE3" stroke-width="0.173253"/>
<path d="M49.5021 45.7576L47.7308 49.5065" stroke="#EEECE3" stroke-width="0.173253"/>
<line x1="56.8526" y1="46.6875" x2="47.6702" y2="49.6328" stroke="#EEECE3" stroke-width="0.173253"/>
<path d="M47.7201 49.592L42.708 48.251" stroke="#EEECE3" stroke-width="0.173253"/>
<line x1="46.5374" y1="44.0038" x2="43.5927" y2="44.6966" stroke="#EEECE3" stroke-width="0.173253"/>
<line x1="47.6635" y1="49.6058" x2="43.6787" y2="44.7547" stroke="#EEECE3" stroke-width="0.173253"/>
<path d="M43.6588 44.6128L42.5739 48.1778" stroke="#EEECE3" stroke-width="0.173253"/>
<line x1="47.8171" y1="49.4622" x2="47.9903" y2="58.2981" stroke="#EEECE3" stroke-width="0.173253"/>
<line x1="42.6116" y1="48.1272" x2="47.4627" y2="58.4357" stroke="#EEECE3" stroke-width="0.173253"/>
<path d="M42.4707 48.2236L39.719 45.133" stroke="#EEECE3" stroke-width="0.173253"/>
<line x1="41.1097" y1="42.8955" x2="43.6214" y2="44.6277" stroke="#EEECE3" stroke-width="0.173253"/>
<line x1="45.1291" y1="38.5693" x2="43.6565" y2="44.6331" stroke="#EEECE3" stroke-width="0.173253"/>
<path d="M45.1738 38.625L41.5818 40.4975" stroke="#EEECE3" stroke-width="0.173253"/>
<path d="M44.959 38.6787L38.0073 34.6015" stroke="#EEECE3" stroke-width="0.173253"/>
<line x1="38.1137" y1="34.5833" x2="37.4209" y2="37.6146" stroke="#EEECE3" stroke-width="0.173253"/>
<path d="M41.1051 32.7446L38.0738 34.6067" stroke="#EEECE3" stroke-width="0.173253"/>
<path d="M38.0298 34.6504L37.2094 32.3261" stroke="#EEECE3" stroke-width="0.173253"/>
<path d="M37.9865 34.5205L33.3096 33.9575" stroke="#EEECE3" stroke-width="0.173253"/>
<path d="M33.2654 34.1306L31.9946 35.2894" stroke="#EEECE3" stroke-width="0.173253"/>
<path d="M34.1749 30.8393L33.2203 34.2298" stroke="#EEECE3" stroke-width="0.173253"/>
<path d="M33.3076 33.7844L28.1267 29.7471" stroke="#EEECE3" stroke-width="0.173253"/>
<line x1="31.024" y1="29.0189" x2="27.9927" y2="29.4519" stroke="#EEECE3" stroke-width="0.173253"/>
<line x1="23.5812" y1="35.1158" x2="28.0858" y2="29.5717" stroke="#EEECE3" stroke-width="0.173253"/>
<path d="M23.6928 35.5166L26.1082 36.0432" stroke="#EEECE3" stroke-width="0.173253"/>
<line x1="26.0053" y1="29.0215" x2="28.1701" y2="29.4545" stroke="#EEECE3" stroke-width="0.173253"/>
<line x1="27.7187" y1="26.237" x2="28.1518" y2="29.6148" stroke="#EEECE3" stroke-width="0.173253"/>
<line x1="34.5651" y1="22.0009" x2="34.6517" y2="24.9456" stroke="#EEECE3" stroke-width="0.173253"/>
<line x1="43.2778" y1="20.4273" x2="39.3804" y2="23.2854" stroke="#EEECE3" stroke-width="0.173253"/>
<line x1="37.7373" y1="21.8485" x2="39.3825" y2="23.1474" stroke="#EEECE3" stroke-width="0.173253"/>
<line x1="36.8382" y1="25.9296" x2="39.3498" y2="23.1581" stroke="#EEECE3" stroke-width="0.173253"/>
<line x1="45.099" y1="25.7213" x2="39.3816" y2="23.2958" stroke="#EEECE3" stroke-width="0.173253"/>
<path d="M33.957 42.0137L28.4563 42.3169" stroke="#EEECE3" stroke-width="0.173253"/>
<line x1="32.6188" y1="39.9484" x2="33.5715" y2="40.5547" stroke="#EEECE3" stroke-width="0.173253"/>
<line x1="29.2735" y1="40.401" x2="28.4942" y2="42.306" stroke="#EEECE3" stroke-width="0.173253"/>
<line x1="21.9786" y1="38.6618" x2="23.884" y2="40.6538" stroke="#EEECE3" stroke-width="0.173253"/>
<line x1="26.3797" y1="39.1424" x2="23.868" y2="40.7014" stroke="#EEECE3" stroke-width="0.173253"/>
<line x1="28.4708" y1="42.3555" x2="23.8805" y2="40.7099" stroke="#EEECE3" stroke-width="0.173253"/>
<path d="M61.8073 32.3551L62.7953 34.3542" stroke="#EEECE3" stroke-width="0.173253"/>
<path d="M61.375 38.1157L62.8907 34.2183" stroke="#EEECE3" stroke-width="0.173253"/>
<path d="M58.4288 35.3002L62.7852 34.3059" stroke="#EEECE3" stroke-width="0.173253"/>
<line x1="38.4958" y1="29.8934" x2="40.6606" y2="30.8459" stroke="#EEECE3" stroke-width="0.173253"/>
<path d="M46.9169 18.7826C46.9169 18.7826 46.4789 18.8307 46.2048 18.895C45.3446 19.0967 44.8016 19.2777 44.1812 19.9068C44.0207 20.0696 43.8065 20.3565 43.8065 20.3565L43.4317 20.3565C43.4317 20.3565 43.0168 20.4013 42.7572 20.3565C42.3955 20.2941 42.1725 20.2222 41.8953 19.9818C41.7381 19.8455 41.6543 19.7539 41.558 19.5695C41.5001 19.4587 41.4758 19.3911 41.4456 19.2697C41.4029 19.0987 41.4041 18.9962 41.4081 18.82C41.4138 18.5675 41.4237 18.4163 41.5205 18.183C41.5859 18.0253 41.6444 17.9458 41.7454 17.8082C41.813 17.7161 41.8494 17.6617 41.9327 17.5834C42.0245 17.4972 42.0868 17.4443 42.1951 17.396M42.1951 17.396C42.2701 17.559 42.4199 17.6958 42.4199 17.6958C42.4199 17.6958 42.5472 17.8236 42.6448 17.8832C42.7399 17.9412 42.9071 17.9956 42.9071 17.9956L43.057 18.0331M42.1951 17.396C42.2029 17.1627 42.2672 17.0345 42.3824 16.8339C42.5114 16.6094 42.6299 16.5084 42.8321 16.3467C43.1133 16.122 43.6566 15.9345 43.6566 15.9345C43.6566 15.9345 43.9952 15.8848 44.1812 15.972C44.676 16.2038 43.941 16.8237 43.9938 17.3585" stroke="#4FDBB3" stroke-width="0.449694" stroke-linecap="round" stroke-linejoin="round"/>
<path d="M47.1802 21.2934C47.1802 21.2934 47.4875 21.6044 47.5925 21.8556C47.6678 22.0357 47.7049 22.3427 47.7049 22.3427L47.7055 22.354C47.7055 22.354 47.7503 22.6213 47.6674 22.7549C47.52 22.9925 47.2977 23.03 46.9554 22.8299L46.6181 22.4926C46.6181 22.4926 46.3632 22.1761 46.1684 22.0055C45.9058 21.7754 45.7116 21.7085 45.4189 21.5183M47.1802 21.2934C46.8886 21.2052 46.7493 21.1657 46.4682 21.181C46.259 21.1924 46.1434 21.2305 45.9436 21.2934C45.731 21.3604 45.5754 21.4638 45.4189 21.5183M47.1802 21.2934C47.2762 21.3011 47.5217 21.3892 47.8173 21.4808C48.1829 21.5941 48.6356 21.3269 48.8258 20.9179C48.9615 20.6263 48.8299 20.5424 48.8291 20.0943M45.4189 21.5183C45.0993 21.5488 44.8981 21.6254 44.5945 21.5183C44.0921 21.3411 43.7476 20.8198 43.7701 20.4315M44.1448 15.9721C44.2801 15.7563 44.7842 15.5602 45.2316 15.5973C45.562 15.6247 46.0185 15.9161 46.0185 15.9161M46.0185 15.9161C45.8838 15.8324 45.435 16.433 45.2316 16.8714C45.0371 17.2906 45.2169 17.6216 45.0067 18.0332C44.6207 18.7888 43.0723 19.2067 43.1705 19.1949M46.0185 15.9161C46.056 15.9161 46.2889 15.8257 46.4682 15.8222C46.6462 15.8186 46.7543 15.827 46.9179 15.8971C47.1091 15.979 47.2017 16.0708 47.3302 16.2344C47.4232 16.3529 47.4813 16.4335 47.5175 16.5716M47.5175 16.5716C47.3415 16.8291 47.1367 16.8269 46.9179 17.0213C46.7632 17.1588 46.6418 17.2141 46.5432 17.3961C46.4569 17.5552 46.4224 17.6756 46.4308 17.8458M47.5175 16.5716C47.7525 16.524 47.8695 16.5766 48.0796 16.6466C48.3416 16.7339 48.4632 16.8185 48.6792 17.0213C48.8603 17.2191 48.8666 17.3211 48.9041 17.471C48.9416 17.6959 48.9041 17.9957 48.979 18.1456M48.979 18.1456C49.0192 18.153 48.307 17.9682 48.0796 18.1081M48.979 18.1456C49.0558 18.1351 49.3023 18.4504 49.3912 18.7077C49.4726 18.9433 49.4857 19.1022 49.4287 19.3448C49.343 19.7097 49.0174 20.1277 48.8291 20.0943M48.8291 20.0943C48.7542 20.0943 48.4325 20.1581 48.1921 20.0943C48.0023 20.0438 47.7424 19.8694 47.7424 19.8694L47.5175 19.8319M47.5175 19.8319C47.5955 19.5276 47.9975 19.0788 48.0421 19.0824M47.5175 19.8319L47.2552 19.8694C46.5706 20.0575 46.3959 20.1218 46.1684 20.2442" stroke="#4FDBB3" stroke-width="0.449694" stroke-linecap="round" stroke-linejoin="round"/>
<path d="M54.9735 22.9403C54.9735 22.9403 54.5355 22.9884 54.2615 23.0527C53.4013 23.2544 52.8582 23.4354 52.2379 24.0645C52.0773 24.2273 51.8631 24.5142 51.8631 24.5142L51.4884 24.5142C51.4884 24.5142 51.0734 24.559 50.8138 24.5142C50.4521 24.4518 50.2292 24.3799 49.9519 24.1395C49.7948 24.0032 49.7109 23.9116 49.6146 23.7272C49.5568 23.6164 49.5325 23.5488 49.5022 23.4274C49.4595 23.2565 49.4607 23.1539 49.4647 22.9778C49.4704 22.7252 49.4803 22.574 49.5772 22.3407C49.6426 22.1831 49.7011 22.1036 49.802 21.9659C49.8696 21.8738 49.9061 21.8194 49.9894 21.7411C50.0811 21.6549 50.1434 21.602 50.2517 21.5537M50.2517 21.5537C50.3267 21.7167 50.4765 21.8535 50.4765 21.8535C50.4765 21.8535 50.6038 21.9814 50.7014 22.0409C50.7965 22.099 50.9637 22.1533 50.9637 22.1533L51.1136 22.1908M50.2517 21.5537C50.2596 21.3204 50.3238 21.1922 50.4391 20.9916C50.5681 20.7671 50.6865 20.6661 50.8888 20.5044C51.1699 20.2797 51.7132 20.0922 51.7132 20.0922C51.7132 20.0922 52.0518 20.0425 52.2379 20.1297C52.7326 20.3615 51.9976 20.9814 52.0505 21.5162" stroke="#A7DC62" stroke-width="0.449694" stroke-linecap="round" stroke-linejoin="round"/>
<path d="M55.2369 25.4507C55.2369 25.4507 55.5441 25.7616 55.6491 26.0128C55.7244 26.1929 55.7615 26.5 55.7615 26.5L55.7622 26.5112C55.7622 26.5112 55.807 26.7785 55.724 26.9122C55.5766 27.1498 55.3544 27.1872 55.012 26.9871L54.6748 26.6499C54.6748 26.6499 54.4198 26.3333 54.2251 26.1627C53.9625 25.9326 53.7683 25.8658 53.4756 25.6755M55.2369 25.4507C54.9452 25.3625 54.8059 25.3229 54.5249 25.3382C54.3156 25.3497 54.2001 25.3877 54.0002 25.4507C53.7876 25.5176 53.632 25.621 53.4756 25.6755M55.2369 25.4507C55.3328 25.4584 55.5784 25.5465 55.8739 25.638C56.2395 25.7513 56.6922 25.4841 56.8824 25.0752C57.0181 24.7835 56.8866 24.6996 56.8858 24.2515M53.4756 25.6755C53.1559 25.706 52.9548 25.7826 52.6512 25.6755C52.1488 25.4983 51.8042 24.977 51.8267 24.5888M52.2014 20.1293C52.3367 19.9136 52.8408 19.7174 53.2882 19.7545C53.6187 19.7819 54.0752 20.0734 54.0752 20.0734M54.0752 20.0734C53.9404 19.9896 53.4916 20.5902 53.2882 21.0287C53.0937 21.4478 53.2736 21.7789 53.0634 22.1904C52.6774 22.9461 51.129 23.364 51.2271 23.3521M54.0752 20.0734C54.1126 20.0734 54.3455 19.9829 54.5249 19.9794C54.7029 19.9759 54.8109 19.9842 54.9746 20.0543C55.1658 20.1362 55.2584 20.228 55.3868 20.3916C55.4798 20.5101 55.5379 20.5907 55.5742 20.7289M55.5742 20.7289C55.3982 20.9863 55.1933 20.9841 54.9746 21.1786C54.8199 21.3161 54.6984 21.3714 54.5998 21.5533C54.5136 21.7125 54.4791 21.8328 54.4874 22.003M55.5742 20.7289C55.8092 20.6812 55.9262 20.7338 56.1363 20.8038C56.3982 20.8912 56.5198 20.9757 56.7359 21.1786C56.917 21.3764 56.9232 21.4784 56.9607 21.6283C56.9982 21.8531 56.9607 22.1529 57.0357 22.3028M57.0357 22.3028C57.0758 22.3102 56.3637 22.1254 56.1363 22.2653M57.0357 22.3028C57.1124 22.2923 57.3589 22.6076 57.4478 22.8649C57.5293 23.1005 57.5424 23.2594 57.4853 23.502C57.3996 23.8669 57.0741 24.2849 56.8858 24.2515M56.8858 24.2515C56.8108 24.2515 56.4892 24.3154 56.2487 24.2515C56.0589 24.2011 55.799 24.0266 55.799 24.0266L55.5741 23.9892M55.5741 23.9892C55.6521 23.6849 56.0541 23.236 56.0988 23.2397M55.5741 23.9892L55.3118 24.0266C54.6272 24.2147 54.4525 24.279 54.2251 24.4014" stroke="#A7DC62" stroke-width="0.449694" stroke-linecap="round" stroke-linejoin="round"/>
<path d="M61.0379 29.0912C61.0379 29.0912 60.6 29.1393 60.3259 29.2036C59.4657 29.4053 58.9227 29.5863 58.3023 30.2154C58.1418 30.3782 57.9276 30.6651 57.9276 30.6651L57.5528 30.6651C57.5528 30.6651 57.1379 30.7099 56.8783 30.6651C56.5166 30.6027 56.2936 30.5308 56.0164 30.2903C55.8592 30.1541 55.7754 30.0625 55.6791 29.8781C55.6212 29.7673 55.5969 29.6996 55.5667 29.5783C55.524 29.4073 55.5252 29.3048 55.5292 29.1286C55.5349 28.8761 55.5448 28.7249 55.6416 28.4916C55.707 28.3339 55.7655 28.2544 55.8665 28.1168C55.9341 28.0247 55.9705 27.9702 56.0538 27.892C56.1456 27.8058 56.2079 27.7529 56.3162 27.7046M56.3162 27.7046C56.3911 27.8676 56.541 28.0044 56.541 28.0044C56.541 28.0044 56.6683 28.1322 56.7658 28.1918C56.861 28.2498 57.0282 28.3042 57.0282 28.3042L57.1781 28.3417M56.3162 27.7046C56.324 27.4713 56.3882 27.3431 56.5035 27.1425C56.6325 26.918 56.751 26.817 56.9532 26.6553C57.2344 26.4306 57.7777 26.2431 57.7777 26.2431C57.7777 26.2431 58.1163 26.1934 58.3023 26.2806C58.7971 26.5124 58.0621 27.1323 58.1149 27.6671" stroke="#CB63F1" stroke-width="0.449694" stroke-linecap="round" stroke-linejoin="round"/>
<path d="M61.3013 31.602C61.3013 31.602 61.6086 31.913 61.7136 32.1642C61.7889 32.3443 61.826 32.6513 61.826 32.6513L61.8266 32.6626C61.8266 32.6626 61.8714 32.9299 61.7885 33.0635C61.6411 33.3011 61.4188 33.3386 61.0765 33.1385L60.7392 32.8012C60.7392 32.8012 60.4843 32.4847 60.2895 32.3141C60.0269 32.084 59.8327 32.0171 59.54 31.8269M61.3013 31.602C61.0096 31.5138 60.8704 31.4743 60.5893 31.4896C60.3801 31.501 60.2645 31.5391 60.0647 31.602C59.852 31.669 59.6965 31.7724 59.54 31.8269M61.3013 31.602C61.3973 31.6097 61.6428 31.6978 61.9384 31.7894C62.304 31.9027 62.7567 31.6355 62.9469 31.2265C63.0826 30.9349 62.951 30.8509 62.9502 30.4028M59.54 31.8269C59.2204 31.8574 59.0192 31.934 58.7156 31.8269C58.2132 31.6497 57.8687 31.1284 57.8911 30.7401M58.2659 26.2807C58.4012 26.0649 58.9053 25.8688 59.3527 25.9059C59.6831 25.9333 60.1396 26.2247 60.1396 26.2247M60.1396 26.2247C60.0048 26.141 59.5561 26.7416 59.3527 27.18C59.1582 27.5992 59.338 27.9302 59.1278 28.3418C58.7418 29.0974 57.1934 29.5153 57.2916 29.5035M60.1396 26.2247C60.1771 26.2247 60.4099 26.1343 60.5893 26.1308C60.7673 26.1272 60.8754 26.1356 61.039 26.2057C61.2302 26.2876 61.3228 26.3794 61.4512 26.543C61.5443 26.6615 61.6024 26.7421 61.6386 26.8802M61.6386 26.8802C61.4626 27.1377 61.2578 27.1355 61.039 27.3299C60.8843 27.4674 60.7629 27.5227 60.6643 27.7047C60.578 27.8638 60.5435 27.9842 60.5519 28.1544M61.6386 26.8802C61.8736 26.8326 61.9906 26.8851 62.2007 26.9552C62.4627 27.0425 62.5843 27.127 62.8003 27.3299C62.9814 27.5277 62.9877 27.6297 63.0252 27.7796C63.0627 28.0045 63.0252 28.3043 63.1001 28.4542M63.1001 28.4542C63.1403 28.4616 62.4281 28.2768 62.2007 28.4167M63.1001 28.4542C63.1769 28.4436 63.4234 28.759 63.5123 29.0163C63.5937 29.2518 63.6068 29.4108 63.5498 29.6534C63.4641 30.0182 63.1385 30.4363 62.9502 30.4028M62.9502 30.4028C62.8753 30.4028 62.5536 30.4667 62.3132 30.4028C62.1234 30.3524 61.8635 30.178 61.8635 30.178L61.6386 30.1405M61.6386 30.1405C61.7166 29.8362 62.1186 29.3873 62.1632 29.391M61.6386 30.1405L61.3763 30.178C60.6917 30.3661 60.517 30.4304 60.2895 30.5527" stroke="#CB63F1" stroke-width="0.449694" stroke-linecap="round" stroke-linejoin="round"/>
<path d="M62.7704 41.305C62.7704 41.305 62.3324 41.3532 62.0584 41.4175C61.1981 41.6192 60.6551 41.8001 60.0347 42.4293C59.8742 42.592 59.66 42.879 59.66 42.879L59.2852 42.879C59.2852 42.879 58.8703 42.9238 58.6107 42.879C58.249 42.8165 58.0261 42.7447 57.7488 42.5042C57.5916 42.3679 57.5078 42.2764 57.4115 42.092C57.3536 41.9811 57.3294 41.9135 57.2991 41.7922C57.2564 41.6212 57.2576 41.5187 57.2616 41.3425C57.2673 41.0899 57.2772 40.9388 57.374 40.7054C57.4394 40.5478 57.4979 40.4683 57.5989 40.3307C57.6665 40.2385 57.703 40.1841 57.7863 40.1058C57.878 40.0196 57.9403 39.9668 58.0486 39.9185M58.0486 39.9185C58.1236 40.0815 58.2734 40.2183 58.2734 40.2183C58.2734 40.2183 58.4007 40.3461 58.4983 40.4056C58.5934 40.4637 58.7606 40.5181 58.7606 40.5181L58.9105 40.5555M58.0486 39.9185C58.0564 39.6852 58.1207 39.557 58.2359 39.3564C58.3649 39.1319 58.4834 39.0308 58.6856 38.8692C58.9668 38.6444 59.5101 38.457 59.5101 38.457C59.5101 38.457 59.8487 38.4073 60.0347 38.4944C60.5295 38.7263 59.7945 39.3461 59.8474 39.881" stroke="#F08D62" stroke-width="0.449694" stroke-linecap="round" stroke-linejoin="round"/>
<path d="M63.0318 43.8159C63.0318 43.8159 63.3391 44.1269 63.444 44.378C63.5193 44.5582 63.5565 44.8652 63.5565 44.8652L63.5571 44.8764C63.5571 44.8764 63.6019 45.1437 63.519 45.2774C63.3716 45.515 63.1493 45.5524 62.8069 45.3524L62.4697 45.0151C62.4697 45.0151 62.2147 44.6985 62.02 44.5279C61.7574 44.2979 61.5632 44.231 61.2705 44.0407M63.0318 43.8159C62.7401 43.7277 62.6009 43.6881 62.3198 43.7035C62.1106 43.7149 61.995 43.753 61.7951 43.8159C61.5825 43.8828 61.4269 43.9863 61.2705 44.0407M63.0318 43.8159C63.1278 43.8236 63.3733 43.9117 63.6689 44.0033C64.0344 44.1165 64.4871 43.8494 64.6774 43.4404C64.813 43.1487 64.6815 43.0648 64.6807 42.6167M61.2705 44.0407C60.9509 44.0713 60.7497 44.1478 60.4461 44.0407C59.9437 43.8636 59.5991 43.3422 59.6216 42.954M59.9964 38.4945C60.1317 38.2788 60.6357 38.0827 61.0831 38.1198C61.4136 38.1472 61.8701 38.4386 61.8701 38.4386M61.8701 38.4386C61.7353 38.3549 61.2866 38.9554 61.0831 39.3939C60.8886 39.8131 61.0685 40.1441 60.8583 40.5556C60.4723 41.3113 58.9239 41.7292 59.022 41.7173M61.8701 38.4386C61.9075 38.4386 62.1404 38.3482 62.3198 38.3446C62.4978 38.3411 62.6058 38.3495 62.7695 38.4196C62.9607 38.5015 63.0533 38.5932 63.1817 38.7568C63.2748 38.8754 63.3328 38.956 63.3691 39.0941M63.3691 39.0941C63.1931 39.3516 62.9883 39.3493 62.7695 39.5438C62.6148 39.6813 62.4934 39.7366 62.3948 39.9185C62.3085 40.0777 62.274 40.1981 62.2823 40.3682M63.3691 39.0941C63.6041 39.0464 63.7211 39.099 63.9312 39.1691C64.1932 39.2564 64.3147 39.3409 64.5308 39.5438C64.7119 39.7416 64.7182 39.8436 64.7556 39.9935C64.7931 40.2183 64.7556 40.5181 64.8306 40.668M64.8306 40.668C64.8708 40.6754 64.1586 40.4907 63.9312 40.6306M64.8306 40.668C64.9073 40.6575 65.1539 40.9729 65.2428 41.2302C65.3242 41.4657 65.3373 41.6246 65.2803 41.8672C65.1945 42.2321 64.869 42.6501 64.6807 42.6167M64.6807 42.6167C64.6057 42.6167 64.2841 42.6806 64.0436 42.6167C63.8539 42.5663 63.5939 42.3919 63.5939 42.3919L63.3691 42.3544M63.3691 42.3544C63.447 42.0501 63.849 41.6012 63.8937 41.6049M63.3691 42.3544L63.1067 42.3919C62.4221 42.58 62.2474 42.6442 62.02 42.7666" stroke="#F08D62" stroke-width="0.449694" stroke-linecap="round" stroke-linejoin="round"/>
<path d="M56.1864 35.848C56.1864 35.848 55.7484 35.8962 55.4744 35.9604C54.6141 36.1621 54.0711 36.3431 53.4507 36.9722C53.2902 37.135 53.076 37.4219 53.076 37.4219L52.7013 37.4219C52.7013 37.4219 52.2863 37.4667 52.0267 37.4219C51.665 37.3595 51.4421 37.2877 51.1648 37.0472C51.0077 36.9109 50.9238 36.8193 50.8275 36.635C50.7697 36.5241 50.7454 36.4565 50.7151 36.3352C50.6724 36.1642 50.6736 36.0616 50.6776 35.8855C50.6833 35.6329 50.6932 35.4817 50.79 35.2484C50.8555 35.0908 50.914 35.0113 51.0149 34.8737C51.0825 34.7815 51.119 34.7271 51.2023 34.6488C51.294 34.5626 51.3563 34.5097 51.4646 34.4614M51.4646 34.4614C51.5396 34.6244 51.6894 34.7612 51.6894 34.7612C51.6894 34.7612 51.8167 34.8891 51.9143 34.9486C52.0094 35.0067 52.1766 35.061 52.1766 35.061L52.3265 35.0985M51.4646 34.4614C51.4725 34.2281 51.5367 34.1 51.652 33.8993C51.781 33.6748 51.8994 33.5738 52.1017 33.4122C52.3828 33.1874 52.9261 32.9999 52.9261 32.9999C52.9261 32.9999 53.2647 32.9503 53.4507 33.0374C53.9455 33.2693 53.2105 33.8891 53.2634 34.424" stroke="#F7E228" stroke-width="0.449694" stroke-linecap="round" stroke-linejoin="round"/>
<path d="M56.4498 38.3589C56.4498 38.3589 56.757 38.6698 56.862 38.921C56.9373 39.1011 56.9744 39.4082 56.9744 39.4082L56.9751 39.4194C56.9751 39.4194 57.0199 39.6867 56.9369 39.8204C56.7895 40.058 56.5672 40.0954 56.2249 39.8953L55.8876 39.5581C55.8876 39.5581 55.6327 39.2415 55.438 39.0709C55.1754 38.8408 54.9812 38.774 54.6885 38.5837M56.4498 38.3589C56.1581 38.2707 56.0188 38.2311 55.7377 38.2464C55.5285 38.2579 55.413 38.296 55.2131 38.3589C55.0005 38.4258 54.8449 38.5292 54.6885 38.5837M56.4498 38.3589C56.5457 38.3666 56.7913 38.4547 57.0868 38.5462C57.4524 38.6595 57.9051 38.3923 58.0953 37.9834C58.231 37.6917 58.0995 37.6078 58.0987 37.1597M54.6885 38.5837C54.3688 38.6142 54.1677 38.6908 53.864 38.5837C53.3617 38.4065 53.0171 37.8852 53.0396 37.497M53.4143 33.0375C53.5496 32.8218 54.0537 32.6256 54.5011 32.6627C54.8316 32.6901 55.2881 32.9816 55.2881 32.9816M55.2881 32.9816C55.1533 32.8978 54.7045 33.4984 54.5011 33.9369C54.3066 34.3561 54.4865 34.6871 54.2763 35.0986C53.8903 35.8543 52.3418 36.2722 52.44 36.2603M55.2881 32.9816C55.3255 32.9816 55.5584 32.8911 55.7378 32.8876C55.9158 32.8841 56.0238 32.8924 56.1875 32.9625C56.3787 33.0444 56.4713 33.1362 56.5997 33.2998C56.6927 33.4183 56.7508 33.4989 56.7871 33.6371M56.7871 33.6371C56.6111 33.8945 56.4062 33.8923 56.1875 34.0868C56.0328 34.2243 55.9113 34.2796 55.8127 34.4615C55.7265 34.6207 55.6919 34.741 55.7003 34.9112M56.7871 33.6371C57.0221 33.5894 57.1391 33.642 57.3492 33.712C57.6111 33.7994 57.7327 33.8839 57.9488 34.0868C58.1299 34.2846 58.1361 34.3866 58.1736 34.5365C58.2111 34.7613 58.1736 35.0611 58.2485 35.211M58.2485 35.211C58.2887 35.2184 57.5766 35.0336 57.3492 35.1735M58.2485 35.211C58.3253 35.2005 58.5718 35.5158 58.6607 35.7731C58.7421 36.0087 58.7552 36.1676 58.6982 36.4102C58.6125 36.7751 58.2869 37.1931 58.0987 37.1597M58.0987 37.1597C58.0237 37.1597 57.7021 37.2236 57.4616 37.1597C57.2718 37.1093 57.0119 36.9348 57.0119 36.9348L56.787 36.8974M56.787 36.8974C56.865 36.5931 57.267 36.1442 57.3117 36.1479M56.787 36.8974L56.5247 36.9348C55.8401 37.1229 55.6654 37.1872 55.438 37.3096" stroke="#F7E228" stroke-width="0.449694" stroke-linecap="round" stroke-linejoin="round"/>
<path d="M51.8563 43.2113C51.8563 43.2113 51.4184 43.2594 51.1443 43.3237C50.2841 43.5254 49.741 43.7064 49.1207 44.3355C48.9602 44.4983 48.7459 44.7852 48.7459 44.7852L48.3712 44.7852C48.3712 44.7852 47.9562 44.83 47.6966 44.7852C47.3349 44.7228 47.112 44.6509 46.8347 44.4105C46.6776 44.2742 46.5937 44.1826 46.4974 43.9982C46.4396 43.8874 46.4153 43.8198 46.385 43.6984C46.3424 43.5275 46.3435 43.4249 46.3475 43.2487C46.3533 42.9962 46.3631 42.845 46.46 42.6117C46.5254 42.454 46.5839 42.3746 46.6848 42.2369C46.7524 42.1448 46.7889 42.0904 46.8722 42.0121C46.9639 41.9259 47.0263 41.873 47.1345 41.8247M47.1345 41.8247C47.2095 41.9877 47.3594 42.1245 47.3594 42.1245C47.3594 42.1245 47.4866 42.2524 47.5842 42.3119C47.6793 42.37 47.8465 42.4243 47.8465 42.4243L47.9964 42.4618M47.1345 41.8247C47.1424 41.5914 47.2066 41.4632 47.3219 41.2626C47.4509 41.0381 47.5693 40.9371 47.7716 40.7754C48.0528 40.5507 48.596 40.3632 48.596 40.3632C48.596 40.3632 48.9347 40.3135 49.1207 40.4007C49.6154 40.6325 48.8805 41.2524 48.9333 41.7872" stroke="#6A61E8" stroke-width="0.449694" stroke-linecap="round" stroke-linejoin="round"/>
<path d="M52.1177 45.7222C52.1177 45.7222 52.425 46.0331 52.53 46.2843C52.6053 46.4644 52.6424 46.7714 52.6424 46.7714L52.643 46.7827C52.643 46.7827 52.6878 47.05 52.6049 47.1837C52.4575 47.4212 52.2352 47.4587 51.8929 47.2586L51.5556 46.9213C51.5556 46.9213 51.3007 46.6048 51.1059 46.4342C50.8433 46.2041 50.6491 46.1373 50.3564 45.947M52.1177 45.7222C51.8261 45.6339 51.6868 45.5944 51.4057 45.6097C51.1965 45.6211 51.0809 45.6592 50.8811 45.7222C50.6685 45.7891 50.5129 45.8925 50.3564 45.947M52.1177 45.7222C52.2137 45.7298 52.4592 45.818 52.7548 45.9095C53.1204 46.0228 53.5731 45.7556 53.7633 45.3467C53.899 45.055 53.7674 44.9711 53.7666 44.523M50.3564 45.947C50.0368 45.9775 49.8356 46.0541 49.532 45.947C49.0296 45.7698 48.6851 45.2485 48.7076 44.8602M49.0823 40.4008C49.2176 40.185 49.7217 39.9889 50.1691 40.026C50.4995 40.0534 50.956 40.3449 50.956 40.3449M50.956 40.3449C50.8213 40.2611 50.3725 40.8617 50.1691 41.3002C49.9746 41.7193 50.1544 42.0504 49.9442 42.4619C49.5582 43.2176 48.0098 43.6354 48.108 43.6236M50.956 40.3449C50.9935 40.3449 51.2264 40.2544 51.4057 40.2509C51.5837 40.2474 51.6918 40.2557 51.8554 40.3258C52.0466 40.4077 52.1392 40.4995 52.2677 40.6631C52.3607 40.7816 52.4188 40.8622 52.455 41.0004M52.455 41.0004C52.279 41.2578 52.0742 41.2556 51.8554 41.4501C51.7007 41.5876 51.5793 41.6428 51.4807 41.8248C51.3944 41.9839 51.3599 42.1043 51.3683 42.2745M52.455 41.0004C52.69 40.9527 52.807 41.0053 53.0171 41.0753C53.2791 41.1626 53.4007 41.2472 53.6167 41.4501C53.7978 41.6478 53.8041 41.7498 53.8416 41.8997C53.8791 42.1246 53.8416 42.4244 53.9165 42.5743M53.9165 42.5743C53.9567 42.5817 53.2445 42.3969 53.0171 42.5368M53.9165 42.5743C53.9933 42.5638 54.2398 42.8791 54.3287 43.1364C54.4101 43.372 54.4232 43.5309 54.3662 43.7735C54.2805 44.1384 53.9549 44.5564 53.7666 44.523M53.7666 44.523C53.6917 44.523 53.37 44.5868 53.1296 44.523C52.9398 44.4726 52.6799 44.2981 52.6799 44.2981L52.455 44.2606M52.455 44.2606C52.533 43.9563 52.935 43.5075 52.9796 43.5112M52.455 44.2606L52.1927 44.2981C51.5081 44.4862 51.3334 44.5505 51.1059 44.6729" stroke="#6A61E8" stroke-width="0.449694" stroke-linecap="round" stroke-linejoin="round"/>
<path d="M39.2079 40.9598C39.2079 40.9598 38.7699 41.008 38.4959 41.0722C37.6356 41.274 37.0926 41.4549 36.4722 42.084C36.3117 42.2468 36.0975 42.5337 36.0975 42.5337L35.7227 42.5337C35.7227 42.5337 35.3078 42.5785 35.0482 42.5337C34.6865 42.4713 34.4636 42.3995 34.1863 42.159C34.0291 42.0227 33.9453 41.9312 33.849 41.7468C33.7911 41.6359 33.7669 41.5683 33.7366 41.447C33.6939 41.276 33.6951 41.1735 33.6991 40.9973C33.7048 40.7447 33.7147 40.5936 33.8115 40.3602C33.8769 40.2026 33.9354 40.1231 34.0364 39.9855C34.104 39.8933 34.1405 39.8389 34.2238 39.7606C34.3155 39.6744 34.3778 39.6216 34.4861 39.5733M34.4861 39.5733C34.5611 39.7362 34.7109 39.8731 34.7109 39.8731C34.7109 39.8731 34.8382 40.0009 34.9358 40.0604C35.0309 40.1185 35.1981 40.1729 35.1981 40.1729L35.348 40.2103M34.4861 39.5733C34.4939 39.34 34.5582 39.2118 34.6734 39.0111C34.8024 38.7866 34.9209 38.6856 35.1231 38.524C35.4043 38.2992 35.9476 38.1118 35.9476 38.1118C35.9476 38.1118 36.2862 38.0621 36.4722 38.1492C36.967 38.3811 36.232 39.0009 36.2849 39.5358" stroke="#62ADEB" stroke-width="0.449694" stroke-linecap="round" stroke-linejoin="round"/>
<path d="M39.4712 43.4702C39.4712 43.4702 39.7785 43.7811 39.8835 44.0323C39.9588 44.2125 39.9959 44.5195 39.9959 44.5195L39.9966 44.5307C39.9966 44.5307 40.0413 44.798 39.9584 44.9317C39.811 45.1693 39.5887 45.2067 39.2464 45.0067L38.9091 44.6694C38.9091 44.6694 38.6542 44.3528 38.4594 44.1822C38.1969 43.9522 38.0026 43.8853 37.7099 43.695M39.4712 43.4702C39.1796 43.382 39.0403 43.3424 38.7592 43.3578C38.55 43.3692 38.4345 43.4073 38.2346 43.4702C38.022 43.5371 37.8664 43.6406 37.7099 43.695M39.4712 43.4702C39.5672 43.4779 39.8128 43.566 40.1083 43.6576C40.4739 43.7708 40.9266 43.5037 41.1168 43.0947C41.2525 42.803 41.1209 42.7191 41.1201 42.271M37.7099 43.695C37.3903 43.7255 37.1892 43.8021 36.8855 43.695C36.3831 43.5179 36.0386 42.9965 36.0611 42.6083M36.4358 38.1488C36.5711 37.9331 37.0752 37.737 37.5226 37.7741C37.853 37.8015 38.3095 38.0929 38.3095 38.0929M38.3095 38.0929C38.1748 38.0092 37.726 38.6097 37.5226 39.0482C37.3281 39.4674 37.5079 39.7984 37.2977 40.2099C36.9118 40.9656 35.3633 41.3835 35.4615 41.3716M38.3095 38.0929C38.347 38.0929 38.5799 38.0025 38.7593 37.9989C38.9373 37.9954 39.0453 38.0037 39.2089 38.0739C39.4001 38.1558 39.4927 38.2475 39.6212 38.4111C39.7142 38.5297 39.7723 38.6103 39.8085 38.7484M39.8085 38.7484C39.6326 39.0059 39.4277 39.0036 39.2089 39.1981C39.0543 39.3356 38.9328 39.3909 38.8342 39.5728C38.7479 39.732 38.7134 39.8524 38.7218 40.0225M39.8085 38.7484C40.0436 38.7007 40.1606 38.7533 40.3707 38.8234C40.6326 38.9107 40.7542 38.9952 40.9703 39.1981C41.1513 39.3959 41.1576 39.4979 41.1951 39.6478C41.2326 39.8726 41.1951 40.1724 41.27 40.3223M41.27 40.3223C41.3102 40.3297 40.598 40.145 40.3706 40.2849M41.27 40.3223C41.3468 40.3118 41.5933 40.6272 41.6822 40.8845C41.7636 41.12 41.7767 41.2789 41.7197 41.5215C41.634 41.8864 41.3084 42.3044 41.1201 42.271M41.1201 42.271C41.0452 42.271 40.7235 42.3349 40.4831 42.271C40.2933 42.2206 40.0334 42.0462 40.0334 42.0462L39.8085 42.0087M39.8085 42.0087C39.8865 41.7044 40.2885 41.2555 40.3332 41.2592M39.8085 42.0087L39.5462 42.0462C38.8616 42.2343 38.6869 42.2985 38.4594 42.4209" stroke="#62ADEB" stroke-width="0.449694" stroke-linecap="round" stroke-linejoin="round"/>
<path d="M46.1395 31.5165C46.1395 31.5165 45.7016 31.5646 45.4275 31.6289C44.5673 31.8306 44.0242 32.0116 43.4039 32.6407C43.2434 32.8035 43.0291 33.0904 43.0291 33.0904L42.6544 33.0904C42.6544 33.0904 42.2394 33.1352 41.9798 33.0904C41.6181 33.028 41.3952 32.9561 41.1179 32.7156C40.9608 32.5794 40.8769 32.4878 40.7807 32.3034C40.7228 32.1926 40.6985 32.1249 40.6682 32.0036C40.6256 31.8326 40.6267 31.7301 40.6307 31.5539C40.6365 31.3014 40.6463 31.1502 40.7432 30.9169C40.8086 30.7592 40.8671 30.6797 40.968 30.5421C41.0356 30.45 41.0721 30.3955 41.1554 30.3173C41.2471 30.2311 41.3095 30.1782 41.4177 30.1299M41.4177 30.1299C41.4927 30.2929 41.6426 30.4297 41.6426 30.4297C41.6426 30.4297 41.7698 30.5575 41.8674 30.6171C41.9625 30.6751 42.1297 30.7295 42.1297 30.7295L42.2796 30.767M41.4177 30.1299C41.4256 29.8966 41.4898 29.7684 41.6051 29.5678C41.7341 29.3433 41.8525 29.2423 42.0548 29.0806C42.336 28.8558 42.8792 28.6684 42.8792 28.6684C42.8792 28.6684 43.2179 28.6187 43.4039 28.7059C43.8986 28.9377 43.1637 29.5575 43.2165 30.0924" stroke="#F08D62" stroke-width="0.449694" stroke-linecap="round" stroke-linejoin="round"/>
<path d="M46.4009 34.0268C46.4009 34.0268 46.7082 34.3378 46.8132 34.589C46.8885 34.7691 46.9256 35.0761 46.9256 35.0761L46.9263 35.0874C46.9263 35.0874 46.971 35.3547 46.8881 35.4883C46.7407 35.7259 46.5184 35.7634 46.1761 35.5633L45.8388 35.226C45.8388 35.226 45.5839 34.9095 45.3891 34.7389C45.1265 34.5088 44.9323 34.4419 44.6396 34.2517M46.4009 34.0268C46.1093 33.9386 45.97 33.8991 45.6889 33.9144C45.4797 33.9258 45.3641 33.9639 45.1643 34.0268C44.9517 34.0938 44.7961 34.1972 44.6396 34.2517M46.4009 34.0268C46.4969 34.0345 46.7425 34.1226 47.038 34.2142C47.4036 34.3275 47.8563 34.0603 48.0465 33.6513C48.1822 33.3597 48.0506 33.2758 48.0498 32.8277M44.6396 34.2517C44.32 34.2822 44.1188 34.3588 43.8152 34.2517C43.3128 34.0745 42.9683 33.5532 42.9908 33.1649M43.3655 28.7055C43.5008 28.4897 44.0049 28.2936 44.4523 28.3307C44.7827 28.3581 45.2392 28.6495 45.2392 28.6495M45.2392 28.6495C45.1045 28.5658 44.6557 29.1664 44.4523 29.6048C44.2578 30.024 44.4376 30.355 44.2274 30.7666C43.8414 31.5222 42.293 31.9401 42.3912 31.9283M45.2392 28.6495C45.2767 28.6495 45.5096 28.5591 45.6889 28.5556C45.8669 28.552 45.975 28.5604 46.1386 28.6305C46.3298 28.7124 46.4224 28.8042 46.5509 28.9678C46.6439 29.0863 46.702 29.1669 46.7382 29.305M46.7382 29.305C46.5622 29.5625 46.3574 29.5603 46.1386 29.7547C45.9839 29.8922 45.8625 29.9475 45.7639 30.1295C45.6776 30.2886 45.6431 30.409 45.6515 30.5792M46.7382 29.305C46.9733 29.2574 47.0903 29.31 47.3003 29.38C47.5623 29.4673 47.6839 29.5519 47.8999 29.7547C48.081 29.9525 48.0873 30.0545 48.1248 30.2044C48.1623 30.4293 48.1248 30.7291 48.1997 30.879M48.1997 30.879C48.2399 30.8864 47.5277 30.7016 47.3003 30.8415M48.1997 30.879C48.2765 30.8685 48.523 31.1838 48.6119 31.4411C48.6933 31.6767 48.7064 31.8356 48.6494 32.0782C48.5637 32.4431 48.2381 32.8611 48.0498 32.8277M48.0498 32.8277C47.9749 32.8277 47.6532 32.8915 47.4128 32.8277C47.223 32.7772 46.9631 32.6028 46.9631 32.6028L46.7382 32.5653M46.7382 32.5653C46.8162 32.261 47.2182 31.8122 47.2629 31.8158M46.7382 32.5653L46.4759 32.6028C45.7913 32.7909 45.6166 32.8552 45.3891 32.9776" stroke="#F08D62" stroke-width="0.449694" stroke-linecap="round" stroke-linejoin="round"/>
<path d="M36.4364 19.2162C36.4364 19.2162 35.9984 19.2643 35.7244 19.3286C34.8641 19.5303 34.3211 19.7113 33.7007 20.3404C33.5402 20.5032 33.326 20.7901 33.326 20.7901L32.9513 20.7901C32.9513 20.7901 32.5363 20.8349 32.2767 20.7901C31.915 20.7277 31.6921 20.6558 31.4148 20.4153C31.2577 20.2791 31.1738 20.1875 31.0775 20.0031C31.0197 19.8923 30.9954 19.8246 30.9651 19.7033C30.9224 19.5323 30.9236 19.4298 30.9276 19.2536C30.9333 19.0011 30.9432 18.8499 31.04 18.6166C31.1055 18.4589 31.164 18.3794 31.2649 18.2418C31.3325 18.1497 31.369 18.0952 31.4523 18.017C31.544 17.9308 31.6063 17.8779 31.7146 17.8296M31.7146 17.8296C31.7896 17.9926 31.9394 18.1294 31.9394 18.1294C31.9394 18.1294 32.0667 18.2572 32.1643 18.3168C32.2594 18.3748 32.4266 18.4292 32.4266 18.4292L32.5765 18.4667M31.7146 17.8296C31.7225 17.5963 31.7867 17.4681 31.902 17.2675C32.031 17.043 32.1494 16.942 32.3517 16.7803C32.6328 16.5556 33.1761 16.3681 33.1761 16.3681C33.1761 16.3681 33.5147 16.3184 33.7007 16.4056C34.1955 16.6374 33.4605 17.2573 33.5134 17.7921" stroke="#FF6EEE" stroke-width="0.449694" stroke-linecap="round" stroke-linejoin="round"/>
<path d="M36.6978 21.727C36.6978 21.727 37.0051 22.038 37.1101 22.2892C37.1854 22.4693 37.2225 22.7763 37.2225 22.7763L37.2231 22.7876C37.2231 22.7876 37.2679 23.0549 37.185 23.1885C37.0376 23.4261 36.8153 23.4636 36.473 23.2635L36.1357 22.9262C36.1357 22.9262 35.8807 22.6097 35.686 22.4391C35.4234 22.209 35.2292 22.1421 34.9365 21.9519M36.6978 21.727C36.4061 21.6388 36.2669 21.5993 35.9858 21.6146C35.7766 21.626 35.661 21.6641 35.4612 21.727C35.2485 21.794 35.0929 21.8974 34.9365 21.9519M36.6978 21.727C36.7938 21.7347 37.0393 21.8228 37.3349 21.9144C37.7004 22.0277 38.1531 21.7605 38.3434 21.3515C38.479 21.0599 38.3475 20.9759 38.3467 20.5278M34.9365 21.9519C34.6169 21.9824 34.4157 22.059 34.1121 21.9519C33.6097 21.7747 33.2652 21.2534 33.2876 20.8651M33.6624 16.4057C33.7977 16.1899 34.3018 15.9938 34.7492 16.0309C35.0796 16.0583 35.5361 16.3497 35.5361 16.3497M35.5361 16.3497C35.4013 16.266 34.9526 16.8666 34.7491 17.305C34.5547 17.7242 34.7345 18.0552 34.5243 18.4668C34.1383 19.2224 32.5899 19.6403 32.6881 19.6285M35.5361 16.3497C35.5736 16.3497 35.8064 16.2593 35.9858 16.2558C36.1638 16.2522 36.2719 16.2606 36.4355 16.3307C36.6267 16.4126 36.7193 16.5044 36.8477 16.668C36.9408 16.7865 36.9988 16.8671 37.0351 17.0052M37.0351 17.0052C36.8591 17.2627 36.6543 17.2605 36.4355 17.4549C36.2808 17.5924 36.1594 17.6477 36.0608 17.8297C35.9745 17.9888 35.94 18.1092 35.9483 18.2794M37.0351 17.0052C37.2701 16.9576 37.3871 17.0101 37.5972 17.0802C37.8592 17.1675 37.9807 17.252 38.1968 17.4549C38.3779 17.6527 38.3842 17.7547 38.4217 17.9046C38.4591 18.1295 38.4216 18.4293 38.4966 18.5792M38.4966 18.5792C38.5368 18.5866 37.8246 18.4018 37.5972 18.5417M38.4966 18.5792C38.5733 18.5686 38.8199 18.884 38.9088 19.1413C38.9902 19.3768 39.0033 19.5358 38.9463 19.7784C38.8605 20.1432 38.535 20.5613 38.3467 20.5278M38.3467 20.5278C38.2718 20.5278 37.9501 20.5917 37.7096 20.5278C37.5199 20.4774 37.26 20.303 37.26 20.303L37.0351 20.2655M37.0351 20.2655C37.1131 19.9612 37.5151 19.5123 37.5597 19.516M37.0351 20.2655L36.7728 20.303C36.0882 20.4911 35.9135 20.5554 35.686 20.6777" stroke="#FF6EEE" stroke-width="0.449694" stroke-linecap="round" stroke-linejoin="round"/>
<path d="M36.4364 28.1385C36.4364 28.1385 35.9984 28.1867 35.7244 28.2509C34.8641 28.4527 34.3211 28.6336 33.7007 29.2628C33.5402 29.4255 33.326 29.7125 33.326 29.7125L32.9513 29.7125C32.9513 29.7125 32.5363 29.7573 32.2767 29.7125C31.915 29.65 31.6921 29.5782 31.4148 29.3377C31.2577 29.2014 31.1738 29.1099 31.0775 28.9255C31.0197 28.8146 30.9954 28.747 30.9651 28.6257C30.9224 28.4547 30.9236 28.3522 30.9276 28.176C30.9333 27.9234 30.9432 27.7723 31.04 27.5389C31.1055 27.3813 31.164 27.3018 31.2649 27.1642C31.3325 27.072 31.369 27.0176 31.4523 26.9393C31.544 26.8531 31.6063 26.8003 31.7146 26.752M31.7146 26.752C31.7896 26.915 31.9394 27.0518 31.9394 27.0518C31.9394 27.0518 32.0667 27.1796 32.1643 27.2391C32.2594 27.2972 32.4266 27.3516 32.4266 27.3516L32.5765 27.389M31.7146 26.752C31.7225 26.5187 31.7867 26.3905 31.902 26.1898C32.031 25.9654 32.1494 25.8643 32.3517 25.7027C32.6328 25.4779 33.1761 25.2905 33.1761 25.2905C33.1761 25.2905 33.5147 25.2408 33.7007 25.3279C34.1955 25.5598 33.4605 26.1796 33.5134 26.7145" stroke="#E96262" stroke-width="0.449694" stroke-linecap="round" stroke-linejoin="round"/>
<path d="M36.6978 30.6489C36.6978 30.6489 37.0051 30.9599 37.1101 31.211C37.1854 31.3912 37.2225 31.6982 37.2225 31.6982L37.2231 31.7094C37.2231 31.7094 37.2679 31.9768 37.185 32.1104C37.0376 32.348 36.8153 32.3854 36.473 32.1854L36.1357 31.8481C36.1357 31.8481 35.8807 31.5315 35.686 31.3609C35.4234 31.1309 35.2292 31.064 34.9365 30.8738M36.6978 30.6489C36.4061 30.5607 36.2669 30.5212 35.9858 30.5365C35.7766 30.5479 35.661 30.586 35.4612 30.6489C35.2485 30.7158 35.0929 30.8193 34.9365 30.8738M36.6978 30.6489C36.7938 30.6566 37.0393 30.7447 37.3349 30.8363C37.7004 30.9496 38.1531 30.6824 38.3434 30.2734C38.479 29.9818 38.3475 29.8978 38.3467 29.4497M34.9365 30.8738C34.6169 30.9043 34.4157 30.9808 34.1121 30.8738C33.6097 30.6966 33.2652 30.1752 33.2876 29.787M33.6624 25.3275C33.7977 25.1118 34.3018 24.9157 34.7492 24.9528C35.0796 24.9802 35.5361 25.2716 35.5361 25.2716M35.5361 25.2716C35.4013 25.1879 34.9526 25.7885 34.7491 26.2269C34.5547 26.6461 34.7345 26.9771 34.5243 27.3886C34.1383 28.1443 32.5899 28.5622 32.6881 28.5503M35.5361 25.2716C35.5736 25.2716 35.8064 25.1812 35.9858 25.1776C36.1638 25.1741 36.2719 25.1825 36.4355 25.2526C36.6267 25.3345 36.7193 25.4262 36.8477 25.5898C36.9408 25.7084 36.9988 25.789 37.0351 25.9271M37.0351 25.9271C36.8591 26.1846 36.6543 26.1824 36.4355 26.3768C36.2808 26.5143 36.1594 26.5696 36.0608 26.7516C35.9745 26.9107 35.94 27.0311 35.9483 27.2012M37.0351 25.9271C37.2701 25.8794 37.3871 25.932 37.5972 26.0021C37.8592 26.0894 37.9807 26.1739 38.1968 26.3768C38.3779 26.5746 38.3842 26.6766 38.4217 26.8265C38.4591 27.0514 38.4216 27.3512 38.4966 27.5011M38.4966 27.5011C38.5368 27.5084 37.8246 27.3237 37.5972 27.4636M38.4966 27.5011C38.5733 27.4905 38.8199 27.8059 38.9088 28.0632C38.9902 28.2987 39.0033 28.4576 38.9463 28.7002C38.8605 29.0651 38.535 29.4831 38.3467 29.4497M38.3467 29.4497C38.2718 29.4497 37.9501 29.5136 37.7096 29.4497C37.5199 29.3993 37.26 29.2249 37.26 29.2249L37.0351 29.1874M37.0351 29.1874C37.1131 28.8831 37.5151 28.4342 37.5597 28.4379M37.0351 29.1874L36.7728 29.2249C36.0882 29.413 35.9135 29.4773 35.686 29.5996" stroke="#E96262" stroke-width="0.449694" stroke-linecap="round" stroke-linejoin="round"/>
<path d="M28.3797 22.9403C28.3797 22.9403 27.9418 22.9884 27.6677 23.0527C26.8075 23.2544 26.2645 23.4354 25.6441 24.0645C25.4836 24.2273 25.2694 24.5142 25.2694 24.5142L24.8946 24.5142C24.8946 24.5142 24.4797 24.559 24.2201 24.5142C23.8584 24.4518 23.6354 24.3799 23.3582 24.1395C23.201 24.0032 23.1172 23.9116 23.0209 23.7272C22.963 23.6164 22.9387 23.5488 22.9085 23.4274C22.8658 23.2565 22.867 23.1539 22.871 22.9778C22.8767 22.7252 22.8866 22.574 22.9834 22.3407C23.0488 22.1831 23.1073 22.1036 23.2083 21.9659C23.2759 21.8738 23.3123 21.8194 23.3956 21.7411C23.4874 21.6549 23.5497 21.602 23.658 21.5537M23.658 21.5537C23.7329 21.7167 23.8828 21.8535 23.8828 21.8535C23.8828 21.8535 24.0101 21.9814 24.1076 22.0409C24.2028 22.099 24.37 22.1533 24.37 22.1533L24.5199 22.1908M23.658 21.5537C23.6658 21.3204 23.73 21.1922 23.8453 20.9916C23.9743 20.7671 24.0928 20.6661 24.295 20.5044C24.5762 20.2797 25.1195 20.0922 25.1195 20.0922C25.1195 20.0922 25.4581 20.0425 25.6441 20.1297C26.1389 20.3615 25.4039 20.9814 25.4567 21.5162" stroke="#6A61E8" stroke-width="0.449694" stroke-linecap="round" stroke-linejoin="round"/>
<path d="M28.6431 25.4507C28.6431 25.4507 28.9504 25.7616 29.0554 26.0128C29.1307 26.1929 29.1678 26.5 29.1678 26.5L29.1684 26.5112C29.1684 26.5112 29.2132 26.7785 29.1303 26.9122C28.9829 27.1498 28.7606 27.1872 28.4183 26.9871L28.081 26.6499C28.081 26.6499 27.8261 26.3333 27.6313 26.1627C27.3687 25.9326 27.1745 25.8658 26.8818 25.6755M28.6431 25.4507C28.3514 25.3625 28.2122 25.3229 27.9311 25.3382C27.7219 25.3497 27.6063 25.3877 27.4065 25.4507C27.1938 25.5176 27.0383 25.621 26.8818 25.6755M28.6431 25.4507C28.7391 25.4584 28.9846 25.5465 29.2802 25.638C29.6458 25.7513 30.0985 25.4841 30.2887 25.0752C30.4243 24.7835 30.2928 24.6996 30.292 24.2515M26.8818 25.6755C26.5622 25.706 26.361 25.7826 26.0574 25.6755C25.555 25.4983 25.2105 24.977 25.2329 24.5888M25.6077 20.1293C25.743 19.9136 26.2471 19.7174 26.6945 19.7545C27.0249 19.7819 27.4814 20.0734 27.4814 20.0734M27.4814 20.0734C27.3466 19.9896 26.8979 20.5902 26.6944 21.0287C26.5 21.4478 26.6798 21.7789 26.4696 22.1904C26.0836 22.9461 24.5352 23.364 24.6334 23.3521M27.4814 20.0734C27.5189 20.0734 27.7517 19.9829 27.9311 19.9794C28.1091 19.9759 28.2172 19.9842 28.3808 20.0543C28.572 20.1362 28.6646 20.228 28.793 20.3916C28.8861 20.5101 28.9441 20.5907 28.9804 20.7289M28.9804 20.7289C28.8044 20.9863 28.5996 20.9841 28.3808 21.1786C28.2261 21.3161 28.1047 21.3714 28.0061 21.5533C27.9198 21.7125 27.8853 21.8328 27.8937 22.003M28.9804 20.7289C29.2154 20.6812 29.3324 20.7338 29.5425 20.8038C29.8045 20.8912 29.9261 20.9757 30.1421 21.1786C30.3232 21.3764 30.3295 21.4784 30.367 21.6283C30.4044 21.8531 30.367 22.1529 30.4419 22.3028M30.4419 22.3028C30.4821 22.3102 29.7699 22.1254 29.5425 22.2653M30.4419 22.3028C30.5187 22.2923 30.7652 22.6076 30.8541 22.8649C30.9355 23.1005 30.9486 23.2594 30.8916 23.502C30.8059 23.8669 30.4803 24.2849 30.292 24.2515M30.292 24.2515C30.2171 24.2515 29.8954 24.3154 29.655 24.2515C29.4652 24.2011 29.2053 24.0266 29.2053 24.0266L28.9804 23.9892M28.9804 23.9892C29.0584 23.6849 29.4604 23.236 29.505 23.2397M28.9804 23.9892L28.7181 24.0266C28.0335 24.2147 27.8588 24.279 27.6313 24.4014" stroke="#6A61E8" stroke-width="0.449694" stroke-linecap="round" stroke-linejoin="round"/>
<path d="M23.3563 28.8314C23.3563 28.8314 22.9184 28.8796 22.6443 28.9438C21.7841 29.1455 21.241 29.3265 20.6207 29.9556C20.4602 30.1184 20.2459 30.4053 20.2459 30.4053L19.8712 30.4053C19.8712 30.4053 19.4562 30.4501 19.1966 30.4053C18.8349 30.3429 18.612 30.2711 18.3347 30.0306C18.1776 29.8943 18.0937 29.8027 17.9974 29.6184C17.9396 29.5075 17.9153 29.4399 17.885 29.3186C17.8424 29.1476 17.8435 29.045 17.8475 28.8689C17.8533 28.6163 17.8631 28.4651 17.96 28.2318C18.0254 28.0742 18.0839 27.9947 18.1848 27.8571C18.2524 27.7649 18.2889 27.7105 18.3722 27.6322C18.4639 27.546 18.5263 27.4931 18.6345 27.4448M18.6345 27.4448C18.7095 27.6078 18.8594 27.7446 18.8594 27.7446C18.8594 27.7446 18.9866 27.8725 19.0842 27.932C19.1793 27.9901 19.3465 28.0444 19.3465 28.0444L19.4964 28.0819M18.6345 27.4448C18.6424 27.2115 18.7066 27.0834 18.8219 26.8827C18.9509 26.6582 19.0693 26.5572 19.2716 26.3955C19.5528 26.1708 20.096 25.9833 20.096 25.9833C20.096 25.9833 20.4347 25.9337 20.6207 26.0208C21.1154 26.2527 20.3805 26.8725 20.4333 27.4074" stroke="#A7DC62" stroke-width="0.449694" stroke-linecap="round" stroke-linejoin="round"/>
<path d="M23.6177 31.3423C23.6177 31.3423 23.925 31.6532 24.03 31.9044C24.1053 32.0845 24.1424 32.3916 24.1424 32.3916L24.143 32.4028C24.143 32.4028 24.1878 32.6701 24.1049 32.8038C23.9575 33.0414 23.7352 33.0788 23.3929 32.8787L23.0556 32.5415C23.0556 32.5415 22.8007 32.2249 22.6059 32.0543C22.3433 31.8242 22.1491 31.7574 21.8564 31.5671M23.6177 31.3423C23.3261 31.2541 23.1868 31.2145 22.9057 31.2298C22.6965 31.2413 22.5809 31.2794 22.3811 31.3423C22.1685 31.4092 22.0129 31.5126 21.8564 31.5671M23.6177 31.3423C23.7137 31.35 23.9592 31.4381 24.2548 31.5296C24.6204 31.6429 25.0731 31.3757 25.2633 30.9668C25.399 30.6751 25.2674 30.5912 25.2666 30.1431M21.8564 31.5671C21.5368 31.5976 21.3356 31.6742 21.032 31.5671C20.5296 31.3899 20.1851 30.8686 20.2076 30.4804M20.5823 26.0209C20.7176 25.8052 21.2217 25.609 21.6691 25.6461C21.9995 25.6735 22.456 25.965 22.456 25.965M22.456 25.965C22.3213 25.8812 21.8725 26.4818 21.6691 26.9203C21.4746 27.3395 21.6544 27.6705 21.4442 28.082C21.0582 28.8377 19.5098 29.2556 19.608 29.2437M22.456 25.965C22.4935 25.965 22.7264 25.8745 22.9057 25.871C23.0837 25.8675 23.1918 25.8758 23.3554 25.9459C23.5466 26.0278 23.6392 26.1196 23.7677 26.2832C23.8607 26.4017 23.9188 26.4823 23.955 26.6205M23.955 26.6205C23.779 26.8779 23.5742 26.8757 23.3554 27.0702C23.2007 27.2077 23.0793 27.263 22.9807 27.4449C22.8944 27.6041 22.8599 27.7244 22.8683 27.8946M23.955 26.6205C24.19 26.5728 24.307 26.6254 24.5171 26.6954C24.7791 26.7828 24.9007 26.8673 25.1167 27.0702C25.2978 27.268 25.3041 27.37 25.3416 27.5199C25.3791 27.7447 25.3416 28.0445 25.4165 28.1944M25.4165 28.1944C25.4567 28.2018 24.7445 28.017 24.5171 28.1569M25.4165 28.1944C25.4933 28.1839 25.7398 28.4992 25.8287 28.7565C25.9101 28.9921 25.9232 29.151 25.8662 29.3936C25.7805 29.7585 25.4549 30.1765 25.2666 30.1431M25.2666 30.1431C25.1917 30.1431 24.87 30.207 24.6296 30.1431C24.4398 30.0927 24.1799 29.9182 24.1799 29.9182L23.955 29.8808M23.955 29.8808C24.033 29.5765 24.435 29.1276 24.4796 29.1313M23.955 29.8808L23.6927 29.9182C23.0081 30.1063 22.8334 30.1706 22.6059 30.293" stroke="#A7DC62" stroke-width="0.449694" stroke-linecap="round" stroke-linejoin="round"/>
<path d="M21.1044 35.5013C21.1044 35.5013 20.6664 35.5495 20.3923 35.6137C19.5321 35.8155 18.9891 35.9964 18.3687 36.6256C18.2082 36.7883 17.994 37.0752 17.994 37.0752L17.6192 37.0752C17.6192 37.0752 17.2043 37.12 16.9447 37.0752C16.583 37.0128 16.36 36.941 16.0828 36.7005C15.9256 36.5642 15.8418 36.4727 15.7455 36.2883C15.6876 36.1774 15.6633 36.1098 15.6331 35.9885C15.5904 35.8175 15.5916 35.715 15.5956 35.5388C15.6013 35.2862 15.6112 35.1351 15.708 34.9017C15.7734 34.7441 15.8319 34.6646 15.9329 34.527C16.0005 34.4348 16.0369 34.3804 16.1202 34.3021C16.212 34.2159 16.2743 34.1631 16.3826 34.1148M16.3826 34.1148C16.4576 34.2777 16.6074 34.4146 16.6074 34.4146C16.6074 34.4146 16.7347 34.5424 16.8323 34.6019C16.9274 34.66 17.0946 34.7144 17.0946 34.7144L17.2445 34.7518M16.3826 34.1148C16.3904 33.8815 16.4547 33.7533 16.5699 33.5526C16.6989 33.3281 16.8174 33.2271 17.0196 33.0655C17.3008 32.8407 17.8441 32.6533 17.8441 32.6533C17.8441 32.6533 18.1827 32.6036 18.3687 32.6907C18.8635 32.9226 18.1285 33.5424 18.1813 34.0773" stroke="#4FDBB3" stroke-width="0.449694" stroke-linecap="round" stroke-linejoin="round"/>
<path d="M21.3658 38.0122C21.3658 38.0122 21.673 38.3231 21.778 38.5743C21.8533 38.7545 21.8904 39.0615 21.8904 39.0615L21.8911 39.0727C21.8911 39.0727 21.9359 39.34 21.8529 39.4737C21.7055 39.7113 21.4833 39.7487 21.1409 39.5486L20.8037 39.2114C20.8037 39.2114 20.5487 38.8948 20.354 38.7242C20.0914 38.4942 19.8972 38.4273 19.6045 38.237M21.3658 38.0122C21.0741 37.924 20.9349 37.8844 20.6538 37.8998C20.4445 37.9112 20.329 37.9493 20.1291 38.0122C19.9165 38.0791 19.7609 38.1826 19.6045 38.237M21.3658 38.0122C21.4617 38.0199 21.7073 38.108 22.0028 38.1996C22.3684 38.3128 22.8211 38.0456 23.0113 37.6367C23.147 37.345 23.0155 37.2611 23.0147 36.813M19.6045 38.237C19.2848 38.2675 19.0837 38.3441 18.7801 38.237C18.2777 38.0599 17.9331 37.5385 17.9556 37.1503M18.3303 32.6908C18.4656 32.4751 18.9697 32.279 19.4171 32.3161C19.7476 32.3435 20.2041 32.6349 20.2041 32.6349M20.2041 32.6349C20.0693 32.5512 19.6205 33.1517 19.4171 33.5902C19.2226 34.0094 19.4025 34.3404 19.1923 34.7519C18.8063 35.5076 17.2579 35.9255 17.356 35.9136M20.2041 32.6349C20.2415 32.6349 20.4744 32.5444 20.6538 32.5409C20.8318 32.5374 20.9398 32.5457 21.1035 32.6159C21.2947 32.6978 21.3873 32.7895 21.5157 32.9531C21.6087 33.0716 21.6668 33.1523 21.7031 33.2904M21.7031 33.2904C21.5271 33.5479 21.3222 33.5456 21.1035 33.7401C20.9488 33.8776 20.8274 33.9329 20.7287 34.1148C20.6425 34.274 20.608 34.3944 20.6163 34.5645M21.7031 33.2904C21.9381 33.2427 22.0551 33.2953 22.2652 33.3653C22.5271 33.4527 22.6487 33.5372 22.8648 33.7401C23.0459 33.9379 23.0522 34.0399 23.0896 34.1898C23.1271 34.4146 23.0896 34.7144 23.1646 34.8643M23.1646 34.8643C23.2048 34.8717 22.4926 34.687 22.2652 34.8269M23.1646 34.8643C23.2413 34.8538 23.4878 35.1692 23.5768 35.4265C23.6582 35.662 23.6713 35.8209 23.6143 36.0635C23.5285 36.4284 23.203 36.8464 23.0147 36.813M23.0147 36.813C22.9397 36.813 22.6181 36.8769 22.3776 36.813C22.1878 36.7626 21.9279 36.5882 21.9279 36.5882L21.7031 36.5507M21.7031 36.5507C21.781 36.2464 22.183 35.7975 22.2277 35.8012M21.7031 36.5507L21.4407 36.5882C20.7561 36.7763 20.5814 36.8405 20.354 36.9629" stroke="#4FDBB3" stroke-width="0.449694" stroke-linecap="round" stroke-linejoin="round"/>
<path d="M30.8915 37.5804C30.8915 37.5804 30.4535 37.6286 30.1794 37.6928C29.3192 37.8946 28.7762 38.0755 28.1558 38.7047C27.9953 38.8674 27.7811 39.1543 27.7811 39.1543L27.4063 39.1543C27.4063 39.1543 26.9914 39.1991 26.7318 39.1543C26.3701 39.0919 26.1472 39.0201 25.8699 38.7796C25.7127 38.6433 25.6289 38.5518 25.5326 38.3674C25.4747 38.2565 25.4505 38.1889 25.4202 38.0676C25.3775 37.8966 25.3787 37.7941 25.3827 37.6179C25.3884 37.3653 25.3983 37.2142 25.4951 36.9808C25.5605 36.8232 25.619 36.7437 25.72 36.6061C25.7876 36.5139 25.8241 36.4595 25.9073 36.3812C25.9991 36.295 26.0614 36.2422 26.1697 36.1939M26.1697 36.1939C26.2447 36.3568 26.3945 36.4937 26.3945 36.4937C26.3945 36.4937 26.5218 36.6215 26.6194 36.681C26.7145 36.7391 26.8817 36.7935 26.8817 36.7935L27.0316 36.8309M26.1697 36.1939C26.1775 35.9606 26.2418 35.8324 26.357 35.6317C26.486 35.4072 26.6045 35.3062 26.8067 35.1446C27.0879 34.9198 27.6312 34.7324 27.6312 34.7324C27.6312 34.7324 27.9698 34.6827 28.1558 34.7698C28.6506 35.0017 27.9156 35.6215 27.9684 36.1564" stroke="#FF6EEE" stroke-width="0.449694" stroke-linecap="round" stroke-linejoin="round"/>
<path d="M31.1548 40.0913C31.1548 40.0913 31.4621 40.4022 31.5671 40.6534C31.6424 40.8336 31.6795 41.1406 31.6795 41.1406L31.6802 41.1518C31.6802 41.1518 31.7249 41.4191 31.642 41.5528C31.4946 41.7904 31.2723 41.8278 30.93 41.6277L30.5927 41.2905C30.5927 41.2905 30.3378 40.9739 30.143 40.8033C29.8805 40.5733 29.6862 40.5064 29.3935 40.3161M31.1548 40.0913C30.8632 40.0031 30.7239 39.9635 30.4428 39.9789C30.2336 39.9903 30.1181 40.0284 29.9182 40.0913C29.7056 40.1582 29.55 40.2617 29.3935 40.3161M31.1548 40.0913C31.2508 40.099 31.4964 40.1871 31.7919 40.2787C32.1575 40.3919 32.6102 40.1248 32.8004 39.7158C32.9361 39.4241 32.8045 39.3402 32.8037 38.8921M29.3935 40.3161C29.0739 40.3466 28.8727 40.4232 28.5691 40.3161C28.0667 40.139 27.7222 39.6176 27.7447 39.2294M28.1194 34.7699C28.2547 34.5542 28.7588 34.3581 29.2062 34.3952C29.5366 34.4226 29.9931 34.714 29.9931 34.714M29.9931 34.714C29.8584 34.6303 29.4096 35.2308 29.2062 35.6693C29.0117 36.0885 29.1915 36.4195 28.9813 36.831C28.5953 37.5867 27.0469 38.0046 27.1451 37.9927M29.9931 34.714C30.0306 34.714 30.2635 34.6235 30.4428 34.62C30.6209 34.6165 30.7289 34.6248 30.8925 34.695C31.0837 34.7769 31.1763 34.8686 31.3048 35.0322C31.3978 35.1507 31.4559 35.2314 31.4921 35.3695M31.4921 35.3695C31.3162 35.627 31.1113 35.6247 30.8925 35.8192C30.7379 35.9567 30.6164 36.012 30.5178 36.1939C30.4315 36.3531 30.397 36.4735 30.4054 36.6436M31.4921 35.3695C31.7272 35.3218 31.8442 35.3744 32.0543 35.4445C32.3162 35.5318 32.4378 35.6163 32.6538 35.8192C32.8349 36.017 32.8412 36.119 32.8787 36.2689C32.9162 36.4937 32.8787 36.7935 32.9536 36.9434M32.9536 36.9434C32.9938 36.9508 32.2816 36.7661 32.0542 36.906M32.9536 36.9434C33.0304 36.9329 33.2769 37.2483 33.3658 37.5056C33.4472 37.7411 33.4603 37.9 33.4033 38.1426C33.3176 38.5075 32.992 38.9255 32.8037 38.8921M32.8037 38.8921C32.7288 38.8921 32.4071 38.956 32.1667 38.8921C31.9769 38.8417 31.717 38.6673 31.717 38.6673L31.4921 38.6298M31.4921 38.6298C31.5701 38.3255 31.9721 37.8766 32.0168 37.8803M31.4921 38.6298L31.2298 38.6673C30.5452 38.8554 30.3705 38.9196 30.143 39.042" stroke="#FF6EEE" stroke-width="0.449694" stroke-linecap="round" stroke-linejoin="round"/>
<circle cx="62.8047" cy="34.3902" r="0.779323" fill="#EEECE3"/>
<circle cx="56.7403" cy="46.5181" r="0.779323" fill="#EEECE3"/>
<circle cx="51.8887" cy="29.1929" r="0.779323" fill="#EEECE3"/>
<circle cx="45.2188" cy="25.6411" r="0.779323" fill="#EEECE3"/>
<circle cx="39.4141" cy="23.2158" r="0.779323" fill="#EEECE3"/>
<circle cx="28.0664" cy="29.5391" r="0.779323" fill="#EEECE3"/>
<circle cx="33.4375" cy="33.9571" r="0.779323" fill="#EEECE3"/>
<circle cx="37.9414" cy="34.6504" r="0.779323" fill="#EEECE3"/>
<circle cx="44.8731" cy="38.7217" r="0.779323" fill="#EEECE3"/>
<circle cx="43.6602" cy="44.5259" r="0.779323" fill="#EEECE3"/>
<circle cx="47.7305" cy="49.5498" r="0.779323" fill="#EEECE3"/>
<circle cx="42.6192" cy="48.1641" r="0.779323" fill="#EEECE3"/>
<circle cx="28.5" cy="42.3599" r="0.779323" fill="#EEECE3"/>
<circle cx="23.9082" cy="40.7144" r="0.779323" fill="#EEECE3"/>
</svg>
