<svg width="628" height="532" viewBox="0 0 628 532" fill="none" xmlns="http://www.w3.org/2000/svg">
<path d="M173.778 40.6336C142.123 43.8564 110.172 54.0236 88.7779 99.5C53.0415 107.954 28.7779 172.5 28.7779 180.5C22.7579 182 -11.2715 241.678 14.5642 298.366C61.1156 367.94 144.278 352.593 166.778 361.5C189.278 370.407 184.942 380.293 245.778 394C306.613 407.707 348.511 527.134 354.011 527.134C359.511 527.134 431.956 525.076 432.511 527.134C433.067 529.192 409.61 430.294 453.511 433.134C497.413 435.973 627.9 430.777 613.778 305.5C639.48 246.079 601.119 197.497 601.011 193.634C600.904 189.77 585.722 108.14 534.511 98.1336C504.57 52.0183 483.985 41.6788 443.011 40.6336C400.096 -3.27543 353.53 -2.64524 310.011 21.1336C248.376 -3.00039 215.574 3.8794 173.778 40.6336Z" stroke="#373539" stroke-width="9" stroke-linejoin="round"/>
</svg>
